<?xml version="1.0" encoding="utf-8"?><svg xmlns="http://www.w3.org/2000/svg" xmlns:xlink="http://www.w3.org/1999/xlink" width="215" height="215" preserveAspectRatio="xMidYMid" viewBox="0 0 215 215" style="display:block;background-repeat-y:initial;background-repeat-x:initial;background-color:rgb(210, 210, 211);animation-play-state:paused" ><g transform="scale(0.84)" style="transform:matrix(0.84, 0, 0, 0.84, 0, 0);animation-play-state:paused" ><g data-idx="0" data-dup="rb" dx="-128" dy="-128" style="transform-origin:0px -107.519px;animation-timing-function:linear;animation-play-state:paused;animation-name:static-e6e576a2-dc6e-4368-8a0e-ff032219c90d;animation-iteration-count:infinite;animation-fill-mode:forwards;animation-duration:100s" ><g transform="translate(-128,-128)" style="transform:matrix(1, 0, 0, 1, -128, -128);animation-play-state:paused" ><path fill="#F1F2F3" d="M257-23.001c-16.586-0.316-33.302,7.272-43.656,22.804l-0.002,0.003l-0.009-0.014
	c-20.296-30.441-65.027-30.441-85.323,0L128-0.194v0c-20.295-30.445-65.032-30.445-85.327,0l0,0L42.67-0.198
	C32.312-15.734,15.591-23.322-1-23.001v86.807h43.602c0.015,0.022,0.031,0.042,0.045,0.064l0,0.001l0,0
	c0.015-0.022,0.031-0.042,0.046-0.064h85.143c0.045,0.066,0.094,0.127,0.138,0.194v0l0-0.194H128h129V-23.001z" data-fill="c1" style="fill:rgb(241, 242, 243);animation-play-state:paused" ></path></g></g>
<g data-idx="0" data-dup="rb" dx="128" dy="-128" style="transform-origin:256px -107.519px;animation-timing-function:linear;animation-play-state:paused;animation-name:static-e6e576a2-dc6e-4368-8a0e-ff032219c90d;animation-iteration-count:infinite;animation-fill-mode:forwards;animation-duration:100s" ><g transform="translate(128,-128)" style="transform:matrix(1, 0, 0, 1, 128, -128);animation-play-state:paused" ><path fill="#F1F2F3" d="M257-23.001c-16.586-0.316-33.302,7.272-43.656,22.804l-0.002,0.003l-0.009-0.014
	c-20.296-30.441-65.027-30.441-85.323,0L128-0.194v0c-20.295-30.445-65.032-30.445-85.327,0l0,0L42.67-0.198
	C32.312-15.734,15.591-23.322-1-23.001v86.807h43.602c0.015,0.022,0.031,0.042,0.045,0.064l0,0.001l0,0
	c0.015-0.022,0.031-0.042,0.046-0.064h85.143c0.045,0.066,0.094,0.127,0.138,0.194v0l0-0.194H128h129V-23.001z" data-fill="c1" style="fill:rgb(241, 242, 243);animation-play-state:paused" ></path></g></g>
<g data-idx="1" data-dup="r" dx="-128" dy="-128" style="transform-origin:0px -43.5134px;animation-timing-function:linear;animation-play-state:paused;animation-name:static-e6e576a2-dc6e-4368-8a0e-ff032219c90d;animation-iteration-count:infinite;animation-fill-mode:forwards;animation-duration:100s" ><g transform="translate(-128,-128)" style="transform:matrix(1, 0, 0, 1, -128, -128);animation-play-state:paused" ><path fill="#D2D2D3" d="M257,52.97c-22.506-19.012-58.159-15.415-75.656,10.833l-0.002,0.003l-0.009-0.014
	C168.95,45.22,147.475,38.001,128,42.091c-12.446,2.614-24.078,9.833-31.991,21.701L96,63.806v0
	c-20.295-30.445-65.032-30.445-85.327,0l0,0l-0.002-0.004C7.361,58.84,3.396,54.701-1,51.356v76.45h11.602
	c0.015,0.022,0.031,0.042,0.045,0.064l0,0.001l0,0c0.015-0.022,0.031-0.042,0.046-0.064h85.143c0.045,0.066,0.094,0.127,0.138,0.194
	v0l0-0.194H96h32h129V52.97z" data-fill="c2" style="fill:rgb(210, 210, 211);animation-play-state:paused" ></path></g></g>
<g data-idx="1" data-dup="r" dx="128" dy="-128" style="transform-origin:256px -43.5134px;animation-timing-function:linear;animation-play-state:paused;animation-name:static-e6e576a2-dc6e-4368-8a0e-ff032219c90d;animation-iteration-count:infinite;animation-fill-mode:forwards;animation-duration:100s" ><g transform="translate(128,-128)" style="transform:matrix(1, 0, 0, 1, 128, -128);animation-play-state:paused" ><path fill="#D2D2D3" d="M257,52.97c-22.506-19.012-58.159-15.415-75.656,10.833l-0.002,0.003l-0.009-0.014
	C168.95,45.22,147.475,38.001,128,42.091c-12.446,2.614-24.078,9.833-31.991,21.701L96,63.806v0
	c-20.295-30.445-65.032-30.445-85.327,0l0,0l-0.002-0.004C7.361,58.84,3.396,54.701-1,51.356v76.45h11.602
	c0.015,0.022,0.031,0.042,0.045,0.064l0,0.001l0,0c0.015-0.022,0.031-0.042,0.046-0.064h85.143c0.045,0.066,0.094,0.127,0.138,0.194
	v0l0-0.194H96h32h129V52.97z" data-fill="c2" style="fill:rgb(210, 210, 211);animation-play-state:paused" ></path></g></g>
<g data-idx="2" data-dup="r" dx="-128" dy="-128" style="transform-origin:0px 20.4811px;animation-timing-function:linear;animation-play-state:paused;animation-name:static-e6e576a2-dc6e-4368-8a0e-ff032219c90d;animation-iteration-count:infinite;animation-fill-mode:forwards;animation-duration:100s" ><g transform="translate(-128,-128)" style="transform:matrix(1, 0, 0, 1, -128, -128);animation-play-state:paused" ><path fill="#F1F2F3" d="M257,104.999c-16.586-0.316-33.302,7.272-43.656,22.804l-0.002,0.003l-0.009-0.014
	c-20.296-30.441-65.027-30.441-85.323,0L128,127.806v0c-20.295-30.445-65.032-30.445-85.327,0l0,0l-0.002-0.004
	C32.312,112.266,15.591,104.678-1,104.999v86.807h43.602c0.015,0.022,0.031,0.042,0.045,0.064l0,0.001l0,0
	c0.015-0.022,0.031-0.042,0.046-0.064h85.143c0.045,0.066,0.094,0.127,0.138,0.194v0l0-0.194H128h129V104.999z" data-fill="c1" style="fill:rgb(241, 242, 243);animation-play-state:paused" ></path></g></g>
<g data-idx="2" data-dup="r" dx="128" dy="-128" style="transform-origin:256px 20.4811px;animation-timing-function:linear;animation-play-state:paused;animation-name:static-e6e576a2-dc6e-4368-8a0e-ff032219c90d;animation-iteration-count:infinite;animation-fill-mode:forwards;animation-duration:100s" ><g transform="translate(128,-128)" style="transform:matrix(1, 0, 0, 1, 128, -128);animation-play-state:paused" ><path fill="#F1F2F3" d="M257,104.999c-16.586-0.316-33.302,7.272-43.656,22.804l-0.002,0.003l-0.009-0.014
	c-20.296-30.441-65.027-30.441-85.323,0L128,127.806v0c-20.295-30.445-65.032-30.445-85.327,0l0,0l-0.002-0.004
	C32.312,112.266,15.591,104.678-1,104.999v86.807h43.602c0.015,0.022,0.031,0.042,0.045,0.064l0,0.001l0,0
	c0.015-0.022,0.031-0.042,0.046-0.064h85.143c0.045,0.066,0.094,0.127,0.138,0.194v0l0-0.194H128h129V104.999z" data-fill="c1" style="fill:rgb(241, 242, 243);animation-play-state:paused" ></path></g></g>
<g data-idx="3" data-dup="r" dx="-128" dy="-128" style="transform-origin:0px 84.3891px;animation-timing-function:linear;animation-play-state:paused;animation-name:static-e6e576a2-dc6e-4368-8a0e-ff032219c90d;animation-iteration-count:infinite;animation-fill-mode:forwards;animation-duration:100s" ><g transform="translate(-128,-128)" style="transform:matrix(1, 0, 0, 1, -128, -128);animation-play-state:paused" ><path fill="#D2D2D3" d="M257,180.97c-22.506-19.012-58.159-15.415-75.656,10.833l-0.002,0.003l-0.009-0.014
	C168.95,173.22,147.475,166.001,128,170.091c-12.446,2.614-24.078,9.833-31.991,21.701L96,191.806v0
	c-20.295-30.445-65.032-30.445-85.327,0l0,0l-0.002-0.004C7.361,186.84,3.396,182.701-1,179.356v53.643
	c16.591-0.321,33.312,7.267,43.67,22.803l0.002,0.004l0,0c20.295-30.445,65.032-30.445,85.327,0v0l0.009-0.014
	c20.296-30.441,65.028-30.441,85.323,0l0.009,0.014l0.002-0.003c10.354-15.532,27.07-23.121,43.656-22.804V180.97z" data-fill="c2" style="fill:rgb(210, 210, 211);animation-play-state:paused" ></path></g></g>
<g data-idx="3" data-dup="r" dx="128" dy="-128" style="transform-origin:256px 84.3891px;animation-timing-function:linear;animation-play-state:paused;animation-name:static-e6e576a2-dc6e-4368-8a0e-ff032219c90d;animation-iteration-count:infinite;animation-fill-mode:forwards;animation-duration:100s" ><g transform="translate(128,-128)" style="transform:matrix(1, 0, 0, 1, 128, -128);animation-play-state:paused" ><path fill="#D2D2D3" d="M257,180.97c-22.506-19.012-58.159-15.415-75.656,10.833l-0.002,0.003l-0.009-0.014
	C168.95,173.22,147.475,166.001,128,170.091c-12.446,2.614-24.078,9.833-31.991,21.701L96,191.806v0
	c-20.295-30.445-65.032-30.445-85.327,0l0,0l-0.002-0.004C7.361,186.84,3.396,182.701-1,179.356v53.643
	c16.591-0.321,33.312,7.267,43.67,22.803l0.002,0.004l0,0c20.295-30.445,65.032-30.445,85.327,0v0l0.009-0.014
	c20.296-30.441,65.028-30.441,85.323,0l0.009,0.014l0.002-0.003c10.354-15.532,27.07-23.121,43.656-22.804V180.97z" data-fill="c2" style="fill:rgb(210, 210, 211);animation-play-state:paused" ></path></g></g>
<g data-idx="0" data-dup="rb" dx="-128" dy="128" style="transform-origin:0px 148.481px;animation-timing-function:linear;animation-play-state:paused;animation-name:static-e6e576a2-dc6e-4368-8a0e-ff032219c90d;animation-iteration-count:infinite;animation-fill-mode:forwards;animation-duration:100s" ><g transform="translate(-128,128)" style="transform:matrix(1, 0, 0, 1, -128, 128);animation-play-state:paused" ><path fill="#F1F2F3" d="M257-23.001c-16.586-0.316-33.302,7.272-43.656,22.804l-0.002,0.003l-0.009-0.014
	c-20.296-30.441-65.027-30.441-85.323,0L128-0.194v0c-20.295-30.445-65.032-30.445-85.327,0l0,0L42.67-0.198
	C32.312-15.734,15.591-23.322-1-23.001v86.807h43.602c0.015,0.022,0.031,0.042,0.045,0.064l0,0.001l0,0
	c0.015-0.022,0.031-0.042,0.046-0.064h85.143c0.045,0.066,0.094,0.127,0.138,0.194v0l0-0.194H128h129V-23.001z" data-fill="c1" style="fill:rgb(241, 242, 243);animation-play-state:paused" ></path></g></g>
<g data-idx="0" data-dup="rb" dx="128" dy="128" style="transform-origin:256px 148.481px;animation-timing-function:linear;animation-play-state:paused;animation-name:static-e6e576a2-dc6e-4368-8a0e-ff032219c90d;animation-iteration-count:infinite;animation-fill-mode:forwards;animation-duration:100s" ><g transform="translate(128,128)" style="transform:matrix(1, 0, 0, 1, 128, 128);animation-play-state:paused" ><path fill="#F1F2F3" d="M257-23.001c-16.586-0.316-33.302,7.272-43.656,22.804l-0.002,0.003l-0.009-0.014
	c-20.296-30.441-65.027-30.441-85.323,0L128-0.194v0c-20.295-30.445-65.032-30.445-85.327,0l0,0L42.67-0.198
	C32.312-15.734,15.591-23.322-1-23.001v86.807h43.602c0.015,0.022,0.031,0.042,0.045,0.064l0,0.001l0,0
	c0.015-0.022,0.031-0.042,0.046-0.064h85.143c0.045,0.066,0.094,0.127,0.138,0.194v0l0-0.194H128h129V-23.001z" data-fill="c1" style="fill:rgb(241, 242, 243);animation-play-state:paused" ></path></g></g>
<g data-idx="1" data-dup="r" dx="-128" dy="128" style="transform-origin:0px 212.487px;animation-timing-function:linear;animation-play-state:paused;animation-name:static-e6e576a2-dc6e-4368-8a0e-ff032219c90d;animation-iteration-count:infinite;animation-fill-mode:forwards;animation-duration:100s" ><g transform="translate(-128,128)" style="transform:matrix(1, 0, 0, 1, -128, 128);animation-play-state:paused" ><path fill="#D2D2D3" d="M257,52.97c-22.506-19.012-58.159-15.415-75.656,10.833l-0.002,0.003l-0.009-0.014
	C168.95,45.22,147.475,38.001,128,42.091c-12.446,2.614-24.078,9.833-31.991,21.701L96,63.806v0
	c-20.295-30.445-65.032-30.445-85.327,0l0,0l-0.002-0.004C7.361,58.84,3.396,54.701-1,51.356v76.45h11.602
	c0.015,0.022,0.031,0.042,0.045,0.064l0,0.001l0,0c0.015-0.022,0.031-0.042,0.046-0.064h85.143c0.045,0.066,0.094,0.127,0.138,0.194
	v0l0-0.194H96h32h129V52.97z" data-fill="c2" style="fill:rgb(210, 210, 211);animation-play-state:paused" ></path></g></g>
<g data-idx="1" data-dup="r" dx="128" dy="128" style="transform-origin:256px 212.487px;animation-timing-function:linear;animation-play-state:paused;animation-name:static-e6e576a2-dc6e-4368-8a0e-ff032219c90d;animation-iteration-count:infinite;animation-fill-mode:forwards;animation-duration:100s" ><g transform="translate(128,128)" style="transform:matrix(1, 0, 0, 1, 128, 128);animation-play-state:paused" ><path fill="#D2D2D3" d="M257,52.97c-22.506-19.012-58.159-15.415-75.656,10.833l-0.002,0.003l-0.009-0.014
	C168.95,45.22,147.475,38.001,128,42.091c-12.446,2.614-24.078,9.833-31.991,21.701L96,63.806v0
	c-20.295-30.445-65.032-30.445-85.327,0l0,0l-0.002-0.004C7.361,58.84,3.396,54.701-1,51.356v76.45h11.602
	c0.015,0.022,0.031,0.042,0.045,0.064l0,0.001l0,0c0.015-0.022,0.031-0.042,0.046-0.064h85.143c0.045,0.066,0.094,0.127,0.138,0.194
	v0l0-0.194H96h32h129V52.97z" data-fill="c2" style="fill:rgb(210, 210, 211);animation-play-state:paused" ></path></g></g>
<g data-idx="2" data-dup="r" dx="-128" dy="128" style="transform-origin:0px 276.481px;animation-timing-function:linear;animation-play-state:paused;animation-name:static-e6e576a2-dc6e-4368-8a0e-ff032219c90d;animation-iteration-count:infinite;animation-fill-mode:forwards;animation-duration:100s" ><g transform="translate(-128,128)" style="transform:matrix(1, 0, 0, 1, -128, 128);animation-play-state:paused" ><path fill="#F1F2F3" d="M257,104.999c-16.586-0.316-33.302,7.272-43.656,22.804l-0.002,0.003l-0.009-0.014
	c-20.296-30.441-65.027-30.441-85.323,0L128,127.806v0c-20.295-30.445-65.032-30.445-85.327,0l0,0l-0.002-0.004
	C32.312,112.266,15.591,104.678-1,104.999v86.807h43.602c0.015,0.022,0.031,0.042,0.045,0.064l0,0.001l0,0
	c0.015-0.022,0.031-0.042,0.046-0.064h85.143c0.045,0.066,0.094,0.127,0.138,0.194v0l0-0.194H128h129V104.999z" data-fill="c1" style="fill:rgb(241, 242, 243);animation-play-state:paused" ></path></g></g>
<g data-idx="2" data-dup="r" dx="128" dy="128" style="transform-origin:256px 276.481px;animation-timing-function:linear;animation-play-state:paused;animation-name:static-e6e576a2-dc6e-4368-8a0e-ff032219c90d;animation-iteration-count:infinite;animation-fill-mode:forwards;animation-duration:100s" ><g transform="translate(128,128)" style="transform:matrix(1, 0, 0, 1, 128, 128);animation-play-state:paused" ><path fill="#F1F2F3" d="M257,104.999c-16.586-0.316-33.302,7.272-43.656,22.804l-0.002,0.003l-0.009-0.014
	c-20.296-30.441-65.027-30.441-85.323,0L128,127.806v0c-20.295-30.445-65.032-30.445-85.327,0l0,0l-0.002-0.004
	C32.312,112.266,15.591,104.678-1,104.999v86.807h43.602c0.015,0.022,0.031,0.042,0.045,0.064l0,0.001l0,0
	c0.015-0.022,0.031-0.042,0.046-0.064h85.143c0.045,0.066,0.094,0.127,0.138,0.194v0l0-0.194H128h129V104.999z" data-fill="c1" style="fill:rgb(241, 242, 243);animation-play-state:paused" ></path></g></g>
<g data-idx="3" data-dup="r" dx="-128" dy="128" style="transform-origin:0px 340.389px;animation-timing-function:linear;animation-play-state:paused;animation-name:static-e6e576a2-dc6e-4368-8a0e-ff032219c90d;animation-iteration-count:infinite;animation-fill-mode:forwards;animation-duration:100s" ><g transform="translate(-128,128)" style="transform:matrix(1, 0, 0, 1, -128, 128);animation-play-state:paused" ><path fill="#D2D2D3" d="M257,180.97c-22.506-19.012-58.159-15.415-75.656,10.833l-0.002,0.003l-0.009-0.014
	C168.95,173.22,147.475,166.001,128,170.091c-12.446,2.614-24.078,9.833-31.991,21.701L96,191.806v0
	c-20.295-30.445-65.032-30.445-85.327,0l0,0l-0.002-0.004C7.361,186.84,3.396,182.701-1,179.356v53.643
	c16.591-0.321,33.312,7.267,43.67,22.803l0.002,0.004l0,0c20.295-30.445,65.032-30.445,85.327,0v0l0.009-0.014
	c20.296-30.441,65.028-30.441,85.323,0l0.009,0.014l0.002-0.003c10.354-15.532,27.07-23.121,43.656-22.804V180.97z" data-fill="c2" style="fill:rgb(210, 210, 211);animation-play-state:paused" ></path></g></g>
<g data-idx="3" data-dup="r" dx="128" dy="128" style="transform-origin:256px 340.389px;animation-timing-function:linear;animation-play-state:paused;animation-name:static-e6e576a2-dc6e-4368-8a0e-ff032219c90d;animation-iteration-count:infinite;animation-fill-mode:forwards;animation-duration:100s" ><g transform="translate(128,128)" style="transform:matrix(1, 0, 0, 1, 128, 128);animation-play-state:paused" ><path fill="#D2D2D3" d="M257,180.97c-22.506-19.012-58.159-15.415-75.656,10.833l-0.002,0.003l-0.009-0.014
	C168.95,173.22,147.475,166.001,128,170.091c-12.446,2.614-24.078,9.833-31.991,21.701L96,191.806v0
	c-20.295-30.445-65.032-30.445-85.327,0l0,0l-0.002-0.004C7.361,186.84,3.396,182.701-1,179.356v53.643
	c16.591-0.321,33.312,7.267,43.67,22.803l0.002,0.004l0,0c20.295-30.445,65.032-30.445,85.327,0v0l0.009-0.014
	c20.296-30.441,65.028-30.441,85.323,0l0.009,0.014l0.002-0.003c10.354-15.532,27.07-23.121,43.656-22.804V180.97z" data-fill="c2" style="fill:rgb(210, 210, 211);animation-play-state:paused" ></path></g></g></g></svg>